PathFileType	4	(X/Y/Z)	RBDS018\RBDS018runT45.trc
DataRate	CameraRate	NumFrames	NumMarkers	Units	OrigDataRate	OrigDataStartFrame	OrigNumFrames
150.000000	150.000000	4	33	mm	150.000000	3937	4500
Frame#	Time	L.ASIS			L.Heel.Bottom			L.Heel.Lateral			L.Heel.Top			L.Iliac.Crest			L.MT1			L.MT5			L.PSIS			L.Shank.Bottom.Lateral			L.Shank.Bottom.Medial			L.Shank.Top.Lateral			L.Shank.Top.Medial			L.Thigh.Bottom.Lateral			L.Thigh.Bottom.Medial			L.Thigh.Top.Lateral			L.Thigh.Top.Medial			R.ASIS			R.ASY			R.Heel.Bottom			R.Heel.Lateral			R.Heel.Top			R.Iliac.Crest			R.MT1			R.MT5			R.PSIS			R.Shank.Bottom.Lateral			R.Shank.Bottom.Medial			R.Shank.Top.Lateral			R.Shank.Top.Medial			R.Thigh.Bottom.Lateral			R.Thigh.Bottom.Medial			R.Thigh.Top.Lateral			R.Thigh.Top.Medial			
		X1	Y1	Z1	X2	Y2	Z2	X3	Y3	Z3	X4	Y4	Z4	X5	Y5	Z5	X6	Y6	Z6	X7	Y7	Z7	X8	Y8	Z8	X9	Y9	Z9	X10	Y10	Z10	X11	Y11	Z11	X12	Y12	Z12	X13	Y13	Z13	X14	Y14	Z14	X15	Y15	Z15	X16	Y16	Z16	X17	Y17	Z17	X18	Y18	Z18	X19	Y19	Z19	X20	Y20	Z20	X21	Y21	Z21	X22	Y22	Z22	X23	Y23	Z23	X24	Y24	Z24	X25	Y25	Z25	X26	Y26	Z26	X27	Y27	Z27	X28	Y28	Z28	X29	Y29	Z29	X30	Y30	Z30	X31	Y31	Z31	X32	Y32	Z32	X33	Y33	Z33	

3938	26.24666666666667	2112.238435329273	973.7155001481106	891.495852758509	1840.548012053775	43.6854925235439	1029.855500865954	1864.854750789887	50.14879632596623	978.755035802684	1855.089634062368	92.16076753442159	1023.920249547642	2037.400903472558	1033.015296335811	860.042320084833	2068.539417785242	38.10423599738237	1042.910575089483	2023.638677798447	43.73991246852778	933.1391434775518	1948.829380814642	1003.80786113146	989.900191881008	1953.500555353009	175.3911986908983	925.7663454083847	1927.728719325752	201.127464211304	961.7485006716648	1981.457458452397	244.036215854681	891.9607245509849	1958.605008304929	273.8377192668924	930.1762440385811	2090.858723512692	578.428546476625	826.4400298695737	2044.092659960303	568.6818232431301	882.6737462288554	2056.327848100935	681.9132244705481	816.1207180149164	2010.330974001783	671.7346686550626	868.004892250733	2153.473102794031	956.0353732509748	1117.391058677655	1248831596684.94	-1093609989.37697	-419931144.1386359	1794.496648383639	691.1904854605515	1044.146303540398	1799.810241844993	664.9618837560374	1082.203476183362	1833.409782328814	659.5786842206076	1043.339382249527	2100.199690795922	1037.003369911539	1165.16596628818	1709.025134455509	484.5823423993298	1004.0866469678	1723.376898861141	508.9437992418187	1112.286738987387	1970.999252624469	999.9932867359564	1095.84065277078	1925.181100207812	566.3776756228355	1115.199669100642	1940.684683120777	610.9185213285134	1086.62910705892	2003.596087582391	550.2825346274376	1130.977003940845	2017.635240393628	593.0701177806684	1102.249514233339	2195.86700992841	557.3642705015691	1167.628020577505	2136.500496774434	539.6559110706701	1130.687719588017	2154.122617636368	656.1046036213042	1191.643950176266	2095.207238363251	637.6124385709512	1162.758331316557	
3939	26.25333333333333	2111.113519208865	973.0461319651989	890.7510897335603	1810.164646423886	46.88690761975477	1029.270334215062	1834.657830064569	52.08756577306947	978.1903049589686	1825.292277659393	95.0511835739817	1022.593817552395	2036.28532533421	1033.861089106094	859.4387553855593	2037.833929489957	38.43313194071297	1042.50932616473	1993.030712834453	43.43430160178647	932.8602647601	1947.88442117729	1004.296212826125	988.7508278471265	1925.465653121958	176.9203497387359	925.1129778350081	1900.619961388102	203.5408042301967	961.1278068043606	1955.530146809665	244.6224210653132	891.3096800379878	1933.74117279036	275.1957355107149	929.5976466145715	2076.608268240177	576.2272567692315	825.8209375569689	2028.916871998429	568.1037506058946	881.5328672385408	2046.162652368798	681.0737925487075	816.0453663081095	1999.421694537955	672.5486143401789	867.5652097634796	2151.855798361283	957.0775532927296	1117.354671866158	1249908184443.199	-1094549181.256803	-420293231.1097751	1803.115520629913	679.4544124315357	1047.349278801816	1810.075960644902	653.1573696191539	1085.328461489373	1843.870495990037	650.2267185198934	1046.19339184901	2097.53720435069	1037.902441307462	1164.985859848663	1730.294993780667	469.1072844911029	1004.136915013653	1743.060392603164	492.3470391368748	1112.826129236785	1969.472176038692	1000.950572479238	1094.635462101903	1940.815745920502	559.467976006231	1117.112945416809	1954.282023698818	605.7463872800859	1090.425623017578	2019.691044674375	546.9596693614716	1133.613960412283	2031.734320905472	591.4244853865106	1106.779368211257	2212.578062971653	565.1954548896779	1170.026760560494	2154.005770629252	543.9701764395854	1133.448971032962	2165.564477767246	661.7531490044821	1193.82336775771	2107.455820489845	639.8013302417569	1165.398674350568	
3940	26.26	2110.702004101438	973.1076720055436	890.2336285370781	1779.791850832122	50.91868752608775	1028.542871004701	1804.502704697423	54.69897028703324	977.4921049526736	1795.677049541403	98.72754919329172	1021.07909988583	2035.891298681477	1035.798912017253	858.684945287141	2007.038213029398	38.65986857870135	1042.150692850829	1962.361524113861	43.09298209317022	932.5983081681129	1947.482723830205	1005.189832824644	987.2883898230396	1897.375816707933	179.3603457503871	924.5077742874557	1873.393187245759	206.7056291763875	960.5825321827103	1929.306863968609	246.2057050479438	890.7575515210133	1908.528152809221	277.3825644989183	929.1467720662971	2062.225490104624	575.0390149726675	825.2665586301625	2013.437844795101	568.6428558117962	880.2219259987905	2036.194675808293	681.1463484256747	815.9651670131959	1988.581266966236	674.3912204096963	866.9297682175766	2150.519080777037	959.1834844329788	1117.477840414811	1250985390757.374	-1095488910.688741	-420655526.1582184	1810.732945976567	665.9038716874041	1049.919747626645	1819.420693758868	639.7993515920726	1087.875498000843	1853.373180067666	639.4106187609724	1048.606851247286	2095.10869057228	1039.531190221651	1164.682705481167	1752.1392781353	452.0549230932975	1003.94762463952	1763.002994228955	474.4769896601553	1113.102878351894	1968.284543109871	1002.393288971228	1093.150323680542	1955.472248290646	552.1441145985883	1118.701347588257	1966.483875192472	600.1139301376581	1093.860198187569	2034.70501170091	543.813926035497	1135.964586653643	2044.337370948929	589.9242822202194	1110.991618490413	2228.552772781018	574.5208086367156	1172.011106773827	2170.940164825361	550.0952830279365	1135.70085150509	2176.53862436012	668.71749277652	1195.692314590672	2119.461715180604	643.6131637316917	1167.484116707241	
3941	26.26666666666667	2111.070256632026	973.8452492759117	889.923330950919	1749.571828453794	55.88553920142535	1027.71430027421	1774.506898811352	58.1512276363118	976.7025927333661	1766.406680062948	103.2778819707168	1019.473291348606	2036.297107535808	1038.619428164669	857.7858431565826	1976.191600344484	38.763215371199	1041.864658403356	1931.667300151718	42.75709828265058	932.3855212677944	1947.659360763364	1006.484778667009	985.5197380473849	1869.391323742722	182.8316480768792	924.0408884150996	1846.219259764897	210.7163658151328	960.2326531782257	1902.93079805505	248.9461764373981	890.4165635408891	1883.122113801325	280.533902699963	928.9651040180557	2047.758650269707	574.9654429142523	824.9076540792047	1997.816231154824	570.4469030364794	878.9655319956438	2026.446669646278	682.1783619803469	815.9535727910854	1977.930269265035	677.3472640304229	866.2541329405584	2149.474019016481	962.2456809686421	1117.74956815348	1252063215805.11	-1096429177.826572	-421018029.3437349	1817.770779134644	650.5303327552083	1051.770468571853	1828.232887340047	624.905155598737	1089.745401985817	1862.259561110693	627.0988269991822	1050.479984133533	2092.928369980762	1041.788040002816	1164.249608227927	1774.761420843235	433.6894241755019	1003.643983648401	1783.466033865483	455.6267768114031	1113.207439296039	1967.473834214415	1004.280059776111	1091.390930973967	1969.346105105959	544.4771875398698	1119.937118769413	1977.521210950622	593.9476080920321	1096.751216880991	2048.752735524827	540.8446257486653	1137.955795593831	2055.592127100912	588.4239554837708	1114.665008097862	2243.596753983204	585.0662713979756	1173.599296013022	2187.060966393341	557.7980522404405	1137.452821238611	2186.92665199527	676.7849771043857	1197.232330486522	2131.060477231481	648.8802605690289	1168.996390037699	
